<mxfile host="app.diagrams.net" modified="2022-08-29T14:48:31.329Z" agent="5.0 (Windows NT 10.0; WOW64) AppleWebKit/537.36 (KHTML, like Gecko) Chrome/78.0.3904.108 Safari/537.36" etag="klF38gumyfuh6FSwxej5" version="20.2.7" type="github">
  <diagram id="QeK3PUvA9TVaffH--kPG" name="第 1 页">
    <mxGraphModel dx="1675" dy="867" grid="1" gridSize="10" guides="1" tooltips="1" connect="1" arrows="1" fold="1" page="1" pageScale="1" pageWidth="827" pageHeight="1169" math="0" shadow="0">
      <root>
        <mxCell id="0" />
        <mxCell id="1" parent="0" />
        <mxCell id="ojRkLQw6z2tPefdDa5fI-1" value="" style="rounded=0;whiteSpace=wrap;html=1;" vertex="1" parent="1">
          <mxGeometry x="80" y="520" width="1030" height="60" as="geometry" />
        </mxCell>
        <mxCell id="ojRkLQw6z2tPefdDa5fI-3" value="" style="shape=image;verticalLabelPosition=bottom;labelBackgroundColor=default;verticalAlign=top;aspect=fixed;imageAspect=0;image=data:image/png,iVBORw0KGgoAAAANSUhEUgAABBYAAAA6CAYAAAAEA9r0AAAgAElEQVR4Ae2dCXRU15nn/7WrSrvYDDIWEhEGDGYRGLxjjG2I7W5DOw6kB5yh4+7xuHM88Zl0hhAy6bhpx5M5TnLabnfG03gaMgNuO3aOgx1sC4JjEhtsFhviAEISAotVaC/V8mqZc99WT6+qpJIoqUqq/zsH6tXd7+9dvbr3u9/3XUs0Go2CFwmQAAmQAAmQAAmQAAmQAAmQAAmQAAkMgoB1EHmYhQRIgARIgARIgARIgARIgARIgARIgARkAhQscCCQAAmQAAmQAAmQAAmQAAmQAAmQAAkMmoA9UU5hHREIhhCJRBJFM4wESIAESIAESIAESIAESIAESIAESGAUELBarXA57bBYLIPuTS/BQiQSxaXWTrR1eAddIDOSAAmQAAmQAAmQAAmQAAmQAAmQAAmMLAKlxfkYX1YEq3XgAgaL0Xnj6XNXZE0Fd34BHC4nLBZaSoysocDWkgAJkAAJkAAJkAAJkAAJkAAJkEDqBKLRCEJBCT3dXXA6bJgyaSwGqrygSw46unrg8wdRWFICZ14ehQqpPwemJAESIAESIAESIAESIAESIAESIIERSUAoFDhcLhSWliIQlNDeNXALBl2w4PUF4HK5YLX1so4YkWDYaBIgARIgARIgARIgARIgARIgARIggdQJWK02OF156PEFU8+kptQFC/6ABAuFCgMGyAwkQAIkQAIkQAIkQAIkQAIkQAIkMBoIWKw2hMIDP8RBFywIx428SIAESIAESIAESIAESIAESIAESIAESGAgBHTBwkAyMS0JkAAJkAAJkAAJkAAJkAAJkAAJkAAJCAIULHAckAAJkAAJkAAJkAAJkAAJkAAJkAAJDJoAPTUOGt3IzPjFlRD2fh5E3XkJX7QO3HZmZPaarU43gSljbaicYMeSmU5cOybzrxFhBvbKhz349HQQLV0060r3887F8uxW4NoyG26f4cKSG1xZgeDIaQkf1wdx8pyEVi/HeVY8lBHWCKfdgoqxNlw/yY575+Qh3zXwc8rT3eVOXwTb9/lw/JyETh/Hdbr55mJ52jh/6CY3pk/K7BzlSlcYr3yojG+vPxefBvucbgJuJ1A53o6HF3lQMc6W7uKvqjxLNBqV3+Knmi7C5nLDnZ9/VQUyc/YSeOOAD7/4oEeeVMyd4kSJJ/MTiuylxZb1RaC9J4ojp4Noagnj0Ts9+LMF7r6SD3ncD17twJmWCO670QW3k+N6yIHnSAVXuiPYeciPNbe68fBiT8Z67ZOi+Pl7Xuz9ox/zpzgxbZIdHo7zjD2PkV7x2dYwjjRJCIWAb64owPxKR8a65A1E8bf/2o4itwV3THfBkdk1YMY4sOL0Ezh5PoR9JwJ4+qvFmH1dZsa4ECo8+XIHrhtrw01TnbBSTzz9DzpHSxTv8GNnJTz7tRJUTki/cMHn9cIakVAxacyACPMVPiBcIzfx708EZKHC9x4qwoq5eSO3I2x5VhH41Sc+/OjNTlxTqvxoZqJxB+qD+NMXIez45hhMLE3/yzUTfWKd2UOgZooT33+tA/fXuOF2ZEZotXVvD440BvHSY2WYPTkzE+TseSJsSToICC2v59/two9+1Ynn15dgfHFm3p07D/pkYcK2/1wGscvMiwTSSeBnu7qw5bde/OTRknQWm3JZQlNBCBW2/E1ZynmYkARSJfDftnfg/7zfjb9/pDjVLEOejrKzIUecHRW8+I4Xjy8roFAhOx7HqGnFQwvcWHOLB2J8ZepqvBjC1Al2ChUy9QBGeb1LZrogFmFNl8MZ6amod+chHzauLKJQISNPYHRWarMCTy4vxIxyB154pztjnTx1IYQlM1wUKmTsCYzuim+udkGMsUxdwrxHaCrwIoGhIHDb9c6sM2unYGEonnSWlSkmph2+CP48w+rqWYaFzUkTgVULPWjpCmds4RWOgpPSND1LFhNPQNtFlUKZsf0WE9PxRTbcfn12+HmIJ8SQkUzgkcVunDiXuYWXMIUoyKOmwkgeQ9ncdiFAy+QlfCrQ/CGTT4B1DzeBDP/JDXd3c7O+pssheWJayB/v3BwAQ9zryWMUFVoxzniRAAmkl8CZljBmltNqMb1UWZpGYOp4O8TiXtiC8yIBEiABEiCBqyFAwcLV0BsheaVwFLbMmE+OEEJsZjoIiHHGiwRIIL0E5B1dN3+q00uVpWkEXKpfA2Huw4sESIAESIAEroZABrdBwjh1xIdzAQAuO+bOzUMREoX13z3peAe+tzuEVgATZ+bjh3cNxDlhFF3dURQWWNH0fhv+4VgEKHHge39ZhIpAGF02GwplSn68uc2LX3daUDUzD9+8y4OCuKb58Js3AmiABfNvK8bN4+ISMIAESIAESIAESIAESIAESIAESIAERhWBDAoWJBz52I9/E9KAMgd+JgsWEoX1zVtq6MQ/vivhcx+AIjv++nobLlyS+szkKnagVJir+nx48/UevHzOgnWPlGGOFMWFbmGwHUUYIez+ZTueb7Vh3bIirCyXcPRcFBcQRUHYmkCoIKoM4+TJEGphxYT5ShN+/1oLflTfZ3P0yC/VFOAnywYiFNGz8oYESIAESIAESIAESIAESIAEgIYWPLA9gqc2jsfSZDz2X0L5ISv2Pj4W1YnSiPhaYJupjLpd57Gk3Y3m1amdtrFnRzOeKynFzuXKsc0DyS/yrm1zJW9jonanECa34WBMVWteTax9SvZ2bNjsBZaV45lFvQs096d3bG5/y6Bg4erB++s68exvgvhECBXE1RnCD7d1qF+Sfyy7eyyeXADA7cQ4dw9CkQi21nbiv1bE8pzf3YnnzwIhNzB+gg2dx0L4SI62YN61g1j82y24Jkk2vz+Kdpqnx+APxZ38cpSwLsELQlQnv7jqHYaXZw+2vNiGTTC/zNRwIRBTr/iXkRbDTxIYGgLKeE1Q9tR89YfeME71sATpAeg/rsZ08oQkgMPmLGXmvwdzAn4ngSEk0M97XJlIBwDzBDFuPFvx9JqJWF81hG1l0SRgJBA3BtXIJO9U7b2cbM4SK9rwrtcCje9yNUwrT0uCJPXq8bwhAfRgyyEJYo6bVDAx1JT2X8LaemDdsiSCj2T1q78VyaJFuOhX80ZF0JEoXd0uH7aKvxOTUEGkXXqTC89tb8MDgC4sSVRGLoYNo2AhgvOfdeOYsxD3TB+gB+C2IL5wOHBtgZYvgtP7OvDDD8O4rAqb7C4LxiY53jssRXFZmFyol+4lNhBF5RwHbvwijAWLXMg/o2o6RIH8KU6saAzgYrUHNaVhfNikOTaK4r3dV/DBbq00ANe58J3JwLlACJfk4CjONHTjd2126LoTFS689HC88YRIPhCtBkOtvB1uAtrEQPxoPx6T0u7ZcR5bGjycpA7388j5+oyCsCQwyqyYVx/EHvFDmDBJDz5ojEnszUl6C80U6f2SF1vSvnNgrpffSSBdBLQFlVig7dQniO3Y8GIL6pLt0qWrcpZDAiYCqb1T27FF3UndeqgF6xclWVRpiyfTnAQifEe7Scgsfi8mxn4H9l/CA7t6uCgyPZ/R8FV752l9Wbu5WbtN+rlETmMSuDb04PVWB5563AN5TPWl2ZC05KuJaMeGWmUVtbW2GVtrk5fV++8KwKLxaNbf9yJfss3CJGU2tOBbB4Gn14i/vQTCOy3bwTaUH2zTvgEJhHqxyNy4GybBgh+v/2s3Xm4B7BXdWDS9EEUD4Ht8fxe+/WkUVVVOPHazHcf3+vBvzb0dxYUkYM7iAnxjsQu6YkBIwuG93finw5pQwIIFizz4hmqmgKNdeGy3EvfZW12xFrVJ2PSaKhK40oOD8+04cDYW3S7MJYxXIIwjH0uKWYccHsVvD/jx2zIHHi1VE4ajSU00vFrzjGXyPusI1J2UcBgObDOpfi1dPTHr2soGkYBMoNSBVQjguV09WKqqIPYis78bm+DAujIJW3tFJPpSgmeWBbG1VsIHDUA1d3sTQWJYVhFQBWdT802qrCV45vGsaigbk5MEtHdqAFv2IzZG9wfl9/G8MisOtyZ53/alvWNcVMmLQ7Hja1KHXzQeO3OS+ejvdPXyiWhejqs2hdhzQNH+SrwpITiGsOXFZmzSNHj1RXVyE4Kk9OWNOwmrdE0ysZj36vOSZJo7ivamFaumJdc8kIUitWE8vaYczaZ5i6b9aS5f67ui1ebB+sc9WK82Xs4zBKYZSdmMsIhhEizkYWa5F2iJItQk4f3zwIMpr8V8ONSoLOQbWqKwX2MFAsr3snIn/u5WC3a9FcBebxTvvN+F9w/3YOVNTkxpC+KVT8NoUE0M7Pk2/OXSQjw809BlYZ6gakH0MkewWjDOAygHKVjQdVDCPnlTz4J7FrswV0guWoL4sXD06LJh7Q12YJ+um5B4CJwO4LGXDWoTiVMxNIsJnG0Xg4DHa2TxI2LT4gjYcXulhE2NPaiDx2RDqag5rptfiupDBol7XBnmgAjqLgMw/UCbU/E7CWSeQBB1YtKrCfgz3yC2gAR6ExhnxbzeIdjTKEGYKvzkcTu2bPbi9ZM9WF9lXDgp726xO2q2/TYVBaHWK0zaZsdFMCA3CEjoV2OhTDidM126CYJh3LUGoGg2aGklQF2sy1oS7Vp4CdbX+LCkL20bLan6KRbyh8WYl+cVBu2CjWNRLQsdmlHeqJl6QtGgkLUZ+tLcVAQc2qbJpu3N2GSqV3w1CxWEIEL26bDaowpnYuZ18UIFUYcP1bpAJEEFORZkWGUPbc+nz3Fg1qdBHEMEb33qw4MTNbOGvuuVPg1gZ6eSZtYMN6bbnZi+KozCE3bcqWon3PCYAzNf9+Kfz0Th7wxje63mdEHJVz0zD99eUYCJ5t7OLcFLsxSthp8eNKgNlFixsMSCGQsKcWtlEK++6FUbacHkqgLcMRlo2q2K6PKtWDAjH1Uz8vEwuvGzZ/2y88ZHV5fh4QrFzEHObPSxEAVavFEImUdhvgX5KooyR2pM1MbwY5gJTC4RR75JWKurGA5zA1gdCQyCQPVyN9Zt9vbeERPlaGqOi4DTh1IruK5NvCetqOaJN6kBY6oME3CiuswL1HuxYX9J/4uwDLeW1ecgAXnhb8Uq7Z3a0ILn6oX9txAEe3DPVC+2HuzGnuWemBmDpoUwP2aSmZScKrjYWnsJ9ywyaS0kzcSI0UOgr4W3ukCP+/1XBVcyBIMZgMEvhyJIcCc1Aa6e5sC8g0m0beLgtuM9ox8FoUlZahAiVI3Fzo1KO8qFM0X1ihMIaBHyp0GoYG63amaULL8s2GtFTIgiNDGWexRfbOhtCg0oWkfl2y9hisnBZa/m5NAX81J76Lo+0Y3bJgZx7DzQfDyAj1M6/SCMfX8KQTZSsNpwb40TUreE5gtRuC0B/PKNHpy4HEFjV9/OD+s+9+OvP/ejpMCCPIcFM8ZZ4SpxYIlbwpaPQjgpFAmsViyriKJWaEe0hvF2K/B2Qxu2FlnQpgo2gAiaxU7dZEUwIMMqtaW2cWf0sdDUgW/tkHAKVqx6UBFADB14lmwk0J+dljGt+V6ol21rb8baei/Eyy3ZS8mcj99JYGgIxO9EJB6TJfLkdG1jO55ZFJuIaqp+Qs1xSyoNlG0OI7LDIzq9SwUY02SegFBhDaJusxfKu7+fSXbmG8wW5BIBsRMrdl2n5usLNN3kUjVdE07i5tUH8N5+YKlmM24WRvTFTCzKlgnP/urvha6u3lcmxuUygT072rCp1IF1rUITWzUDEKY3cQKIGCVFozf2HVUerCprw6YD7VhfFZt3GFLEbmXTHwe2aePbaMpjdDAdyyHfye/0Q8kcSpfgmY0leEbNIwQh5bJAQfiRKFf+3sTf3+b4UzOWri6H8EohaycIQcLqEtnJtXAiCSjzf1NT5K9r6X9K5jB8ggU4cPs0G/73+TBCgRD2fBLF1ERPxhjW1I03m5SA8tl5uKtQjLAe/OhNSX7oxqTiPi/PivnX23FvtQvO837sPBnC0StRdKm+yRTfCFFcaItg8R2FKPEHZKGCMJP425UlqPxTmyJYKHNgw+woXvl9CA3dURgh1bf6ZXX4C+2KOUZlkTFWa5Fw3tiJ/3vMCl2J6HIQL7yh6gkFI7goJ43io4/acdHwx1o1qwQrEp75opXNz6shkHjhpZ0K0X/J8gtHVssKqBNVk7Ob/otgChJIE4HUF0ny5HS7D1saStQJrNghsGLVGvGG6knansO9HBOJ+spju2ZJczGCBLKJgDLBXC+ORzuoLq4MO1jZ1FK2ZfQT6P1OVT3T6/5vFJ8g82qKY+9ZeYEWwCaTYHhApOSFmrrzrG6MxDm7G1CBTDxyCMRvQMS1vZcpRA9Otzmw7XEn3tvcj4m3qaB5JU5DiAfr53djU63iPNoQYbqNmfVovhw0vwdaQjFWk53eIGtOGJ1TmgRncrwQKIh3vjCr0AoVn5rQbXNz/EahMIdQhQoiaUK/FfJaQPMLofx99fKVYqwrh+4TrYqHrPtFCxxY8kEYtRFg3/EAivup6Y+HQzglp7Hi/jluJXW1G/dPkPC/Lgs/CBZUX2dDTbkD06os+OzXPfh1vYR/aQN+sKYYG24TWSJoO+vH8XMhNJyL4ExbGA0+G26fZUN5twNfbgdWrPCg/pdX8KRw0Fhkw98sdGHW3DwsnNqDjy/bYDnejT1+Cz46G8Gpc0Fc6rLgyHmlOdPGCocLQfx+Vw9+dy4MRUYgnDcGAaPzxs4IdnWava9HceJ0CCeUouT/l00GVhi+8zYLCchqWZpjnACE3VZdkmMss7D1bFIuElB3DzRbXeUYJQf29uMnQZ98qsI0mgHl4uAZHX3WJobKRFPYCl8yHC88OvrIXmQ/Af2dmqipqonD4VaTp3mRttUoGBYBA/V1ozmgUwUMQmjcHlRPjkjUGIaNDgL9bEDEaSIo4wRox3spAIgJAcQmm76VquRc5MS6Wq+sbXNPsrLkMW/F0/fFtBo0jYHeWZRxWze/vJdJm/Ze7502Nj/Xj8yO8w/RO4es/aD7cNBOo5Bk7WSRMtmmZKwUjVssJFfvhlWwAHs+bqkOoPZEFLgYwjvCZD3Z5Q1he6uiFVA41Yk7dWePTjz49bF40Jwv1I3Xz0VxQYRPsKJcj7eidLIHN08GbtbDlJtLdRFEolG89XYHjqqnPhQ6gaZGP7Y1Cs0EAGNdeOL+Usy70IUNOyI4dT6EvR9a8JGIs9pwgyz+CuKTT0P4g5JD/7+kCOjsUL5eU+nE2gq1wz0Sth0I4wIsuOsmFxYY/hZLYg3Xy+FNlhKQBQyqHdfV7CZkaffYrNFEQNs9ELa6wOnGCNbNN0nv++quJtmvpa16X5gYl/0E5IloqaIa3ku9PPubzhaOcgKaA7u9ccegKvMMTTAMecEmYeug5h3KAmjKDmHW2ddRxKMcNruXFgKJhQBa0YoZ5nNtPUgmWJDH/NR87DRtcuiaBlpR2meSYyfjBHbaBqCWT/uUN0nizR8gh6vCu8vqqSw1pfHHsQozpDKrsIjnlYTA8AoWYMHCqTYUngihcKIN47vCONKdpGUOK+4qj+LdhigemFNgOJ7Sj9de6jYc7Zggf70fDz6rCgYSRC+7eyyeXAB0t4ax62RvLYKuljB2tRgyhe14wmVFXoUTC4sknOqMYJsqArNPtqNGmGfAjomlwoWHBda2KFphheK80YetLyiqRNeMdWJapXqiwOUw3FCcRY4b78I01WlPfpkDhcP8RAw95e2gCKjOwQaVl5lIYBgJaLsHO7qxtdVgz5hqExaNx7bGZqylE7BUiTFdthJI4Ik/W5vKduUKAcWBneK00dxnZYEWc+KoeN3fetCsxWDOl/y74ow6eTxjRioBVSNFOwIS6P9UCMQcFcYt0AeAQRYGNDpgFIwJwYMwcRB+GxJdyQQTcZoIsmaFtVfZWnlCa+K9UsMOrRYhfwqhXBD3JHKsaBQyGAURVePRrPl7ULU1oQoZhGPHeZWlvU0qtPr6aKOWJBc+h38ZO7sIP6+0oLAgIAsIjiSj7LTi7q8U4+sBcaRjskRXFz55cSFeKu/B/3hTQh0suH9ZER4SYqgeH15+PYg/SEB5gXa8oBt3zvBh+35NEGHBfTM0gYcLK9fn4RG7diqE2q6uEM6qgpMJ7T489rLh5Ak5SRT/vrMD/y7fa8KIq+sTcw8dAfHyeq7EJMEU3mtbgXWpeGceuqaxZBJIgYB6BNRBSXbAqNkzppBRT6I5EqNJhI6EN1lNQEwq448Ck3fJ4MBT2uQxq/vAxuUEAdmBnRVPT0u8QFpa6QDqJd2Jo1h4yc6kE5liigVOo1Mxc0i42GnHFmF3PtUd8+WQE5BzoZOaycvQ9lVe+JuqEA4c51Waj7U2JRrMVzGGa8N4es34BAt64RMCQGWCgnWhQD7WNyQ6ItuDp2o6ZMGL2dRBN/GQfTOUK/XKR3AmMPlQq5ZPzSp1JmhjgraN4qDhFyzAisKC1Ik6XGZ7CRfuW2nDbdr6HkD4nBeb3wlBtmYosuO//0U+rjVVceKDDvxP2WGDBRPLlEhHgQV/PCyECsp14bIfl69x4NJHkixUgNuOx5apvh0AjBlrxTWIKOYWDitunK4dD2mBIwFJ6UQIn8hFW1E5RjieVOqRT6dQ6xQfwqlkcv0KQ0LeZpSAkKxiRzPKNxslr3Rol9GHktOVJ3DK1I9TOu0IqFVJJq/94qwai5/UCCd4XjywyxmvJthvAUxAAldPIP50H9WJblzRwnEjsGFzs8E8ErIX/uaNMZveuGwMIIFhJaA6sCtz4XaTSrjejATmD/Jur7x4akZ5rZ5SGd+r1fEtHDfiEsqNDu5Um3F9V9aQlbejj4BiVmDr5VNGMzUwL6j77H1rRF5n9XKAqGdQNG5mL0ssGNOTDehGNTWGmGdPTCwEU3006Me1quUr/UPsBIhE9VZ5sLTKg2bZNK4ZR9uUjUNtE9HoMNLISz8Vq8qO2RiYg8tEzRhtYQmWw9neRQsKxzogWyAA8Nd14tnfqUIF4bOgpgALxsd3q15x1wAIcwVNCSFkQcX1Diz1hfC7ligOfhqQ/ykELPjaimLUqEW1ft6Bf/xNSBEqiARSGD/+RQf+flUxbixNxCyKI19EEBJRBTZU5GuSEBv+0xOluFXPYtJy0MN5k1YCpuNrzGXHq2MllvrGpzOXxO8kMPQE+h+Hicev7AV5o7l9CdIa1QJNyeNUFE3x/EoCQ0agn/c4IM47N9fe+9gxcyy/k8CwEOjjnaof6ddnQ5KM4z7LVQvs9++mz4oZOSIJGEwixEkJG52oM+zaa7/jYhEtC6X62ZSAZgppElD1QiPqWdTXKWtmp6QJjm4U7ZgfwRJxDKssUCjXj4yU61K1EHSnjFBOVtEX+yLR/ktYctAoSNEEFGprp+b3FlLIfx8iTRs2lHrwjGq+oaRWOSLBqRJQj/Le3oxNcmIh4KbAOn4FrnJP60dTB761Q1JPeEhQcquEJ581OjYQHnAThOm+C6LoavTinU+CeKUhou/2j6t24euzIzh9VkKewXzCf6EHbzRq9VpQqmoswG7FhIo8LAv5YflMwm6DTRIQxf97sxV18/PwYDiInx4MQ4vOswP+EBBqkbBxWxseXVaIh2fagfOqNoOoyteNPXWKNEM4bpyltzKKU/u7VQ8LImEIl7Sm8ZMESIAESIAESIAESIAESIAEBkxAEyiIRW45mg0aMNWGe61YfZNCLNiF0EB3WKgIsrR04lNPawxMcJ9qugRZ9aCk2jSDEqQlEcrptYmb+P4q0Qk2Xgz50tFXQ3Gj4nZ4BAtpRBU804GNv5Lwmcl24IY5Hvzdcg/K4MPON714NYlTSHuFHQtldYcojr3dig1HdVUGuZXjrnXgy/lhvHIiIgsPmo/78P3OWAeun+3Bd2+OYNs2P2p9QoAQQVs4gre2tuBf1CMoRepAUwgfyUoKFtxV7QY6tAZH8Npe7T5WLu9IgARIgARIgARIgARIgARIYHAE+l4IJy0zlQV70syMIIEYgeERLHhsWDQtii/F6h3knQWV0/NRcbEDn6m2DZMm2rFmSRGWXKf5YnCjeqJX92dgrGjSdQ48cV+hesKEBbPmOTDraBDHrBZMm2LHXywowMJKGxwA/vxyD/Y0WrG0OoR/FkKEgAWLbsrHd+7Mk+OfXGuB5xUf9k3Kw9dnO3HirAU4rwopimyoua8IN9na8N0WBx4QBkmKswXZFKNmmg3qQRDyWcRHT0bQbGwo70mABEiABEgAgNMOBEO9BeAEQwIkQAIkQAIkQALZRmB4BAvjCrB6ZRq7/lA+vrc/jDFzPPhSgeZAMVb+gnuL8dJtse/iLuFRjhML8d2/CgEl8cc8OsZ5cJ+6+v+Pd0UxpzjfILwAUJqPx76Rh9VhRRBx3Yw8fHtMFI4iB6ZXuSC7XVhWgm0BK/JEA4ptWD5NtNWKpSuLMENvng+/eSOABlhQnk6fJ3r5QMU4Oy51hOXJqdMez8uQlLckMGAC7T2K/xAxzniRAAmkl8C1ZTbsPhZIb6EsjQRUAqcuheCwWzCmUHM+RTQkQAIkQAIkMDgCI3MlYM/Dopj3w7ieOwocuCalkycUR5BxBZgCimYXYokpTP5qt6FQJVhUmY874o47scZ8PVQX4YmErlTdWLEydvJEomquNqxirDJh+ENdEEtmGJxPXG3BzE8CgLzoEQIrbZwRCgmQQPoIVI63o+GiF6cvhzCFwrv0gWVJMoF9JwLyu9umKX0OMxeHDZBkL9fDXDGrI4FhIMDNvGGAzCqyikCGfkqyisGob4zYjfjqLR78+NddOHslPOr7yw4OH4H6iyG88G4X/sPtHnnXa/hqjtU0qcQG0Y6eINXFY1R4ly4CR5qU46QmlWbm53L2dQ6If99/rRNdfo7xdD1XlgN8cCKA1w/48Oid+RnDITTdPmkMZqx+Vjy6CYi5wfjizGnjiA2Xhoucd4/uUZa53jW1hFHkzi5N9JGpsZC5Zzhia37kZg9OnQ9h9T9dwVcWuVFT5YTHmdmJ4OMAAAPgSURBVF2DccTCzcGGi0X8wYYgXt3vQ02lA3+2YGi1bvpCvPBLTvxiXw++s70dX7slX7ZJ7ys940ggVQLCzOf5d7txx0xXRlXF/8uXC/CDV7vw1Z9dwcOL3Zh1rQOZ2mFOlR3TZS+BK10RWajw3lG/LBSeO0V4lsrMdfesPOw81I5/+FUn7p2dx3GdmccwKmtVNj66sfrWIbIzToHa8rl5+MGrHXjhXRsWVztTyMEkJJAagaNnJWzb58VT98snEqSWaRhSWaLRqLwFcqrpImwuN9z5mZNcD0N/c76K3Uf9ePczPxovhuGTuPuV8wNikADcDgsqJ9hw7415uHu27EVkkCWlJ5vwIfLTt7vx+RcSworLh/QUzFJymoAY50Ko8Fd350PcZ/KSQlG88qEPB+oDOHM5zHGeyYcxwusuclsxfZIdX7nFI39mujtHz0j4eW03mi5zZzfTz2I01S/GuRDErrwpcxsfgueB+iBe/m0PvrhCm5/RNL4y3RfhF2ft7e4hm4P7vF5YIxIqJo0ZUFcpWBgQLiYmARIgARIgARIgARIgARIgARIggdFJYLCChcwYjY7OZ8BekQAJkAAJkAAJkAAJkAAJkAAJkEDOEaBgIeceOTtMAiRAAiRAAiRAAiRAAiRAAiRAAukjoDtvtNuF11Ta3KcPLUsiARIgARIgARIgARIgARIgARIggZFDYLBepXSNBbfLgVCQR/6MnEfOlpIACZAACZAACZAACZAACZAACZBA+giEQxJcDl3/IOWCdcFCcaEHoZCEoN+fcmYmJAESIAESIAESIAESIAESIAESIAESGPkEhCxACgZQVDDwU990UUSey4HxY4px6UoHQlIQNrsdFstgFSFGPlT2gARIgARIgARIgARIgARIgARIgARGO4FoFBCaCkG/D+PKiuBxuwbcZf24SS2nzx9Ea4cX/oCEqKiBFwmQAAmQAAmQAAmQAAmQAAmQAAmQwKgkIBQKhKJBWXE+3HnOQfUxTrAwqFKYiQRIgARIgARIgARIgARIgARIgARIICcJ6D4WcrL37DQJkAAJkAAJkAAJkAAJkAAJkAAJkMBVEaBg4arwMTMJkAAJkAAJkAAJkAAJkAAJkAAJ5DYBe8PpM7lNgL0nARIgARIgARIgARIgARIgARIgARIYNAG71UqlhUHTY0YSIAESIAESIAESIAESIAESIAESyHECdpuNgoUcHwPsPgmQAAmQAAmQAAmQAAmQAAmQAAkMmgA1FgaNjhlJgARIgARIgARIgARIgARIgARIgAQoWOAYIAESIAESIAESIAESIAESIAESIAESGDSB/w+HJO+QZKwzmgAAAABJRU5ErkJggg==;" vertex="1" parent="1">
          <mxGeometry x="80" y="600" width="1046" height="58" as="geometry" />
        </mxCell>
        <mxCell id="ojRkLQw6z2tPefdDa5fI-4" value="数据采集" style="text;strokeColor=none;fillColor=none;html=1;fontSize=24;fontStyle=1;verticalAlign=middle;align=center;" vertex="1" parent="1">
          <mxGeometry x="90" y="530" width="100" height="40" as="geometry" />
        </mxCell>
        <mxCell id="ojRkLQw6z2tPefdDa5fI-5" value="" style="shape=image;verticalLabelPosition=bottom;labelBackgroundColor=default;verticalAlign=top;aspect=fixed;imageAspect=0;image=data:image/png,iVBORw0KGgoAAAANSUhEUgAABBEAAABXCAYAAABStd0JAAAgAElEQVR4Ae2dC3xV1ZX/f+fcV3LzugkJECJCwCgIaBEVHJUi4rOolWoro6ClrZWPfYn911LKTGcoY9tpsTNTiq2WCrTCWEenlVpUVHx0VBS1xQcSnkoghJD3TXLf/8/e++xz9zn33JubF5Bk3c8Hzms/v+dkP9Zeey0tkUgkQD8iQASIABEgAkSACBABIkAEiAARIAJEgAh0QUDv4jk9JgJEgAgQASJABIgAESACRIAIEAEiQASIACdAQgT6EIgAESACRIAIEAEiQASIABEgAkSACBCBrAi4swkVjkTR3hFGZziCUDiaTRQKQwSIABEgAkSACBABIkAEiAARIAJEgAgMAAI+rxs5Xg/8uV54PZnFBFommwjMWkJ9YyuON7VC03S4PR7obs8AQEBFJAJEgAgQASJABIgAESACRIAIEAEiQASyIZCIRRGJRJCIxzAsUIDS4gJomnPMtEIEJkA4cLge4VAUuQX58ObkOqdAd4kAESACRIAIEAEiQASIABEgAkSACBCBAU8g3NmJjrZWeDwuVFaUQnOQJKS1icA0EMLhKApKSkiAMOA/BaoAESACRIAIEAEiQASIABEgAkSACBCBzAS8OTkoKBmGSDSO+sY2x8COQgRmA4FtYcjNL4DucjlGpJtEgAgQASJABIgAESACRIAIEAEiQASIwOAioOs6/AWFXCbAZAP2n6MQoa09BF13g0kh6EcEiAARIAJEgAgQASJABIgAESACRIAIDB0CHq8XLrcHTDZg/zkKETpDYbi7sMhoT4iuiQARIAJEgAgQASJABIgAESACRIAIEIHBQcDt9oDJBuy/NEKECDRXZrcO9oTomggQASJABIgAESACRIAIEAEiQASIABEYJAR0ndtGsNfGUYgQjyfs4eiaCBABIkAEiAARIAJEgAgQASJABIgAERjiBByFCEOcCVWfCBABIkAEiAARIAJEgAgQASJABIgAEXAgQEIEByh0iwgQASJABIgAESACRIAIEAEiQASIABFIJUCGD1KZDJk7HZEEWtvjQ6a+VNH0BPJydOT5tPQBsnzSGIwjEqXtUFniGhTBhhf13g0wfTeD4lPodSWK83R43D1rh6g/6zV+SsCBgEsHhhX0rI2ra445pEi3iICVAPu+2HfW0x8bc7E+lH5Dk0Bv+s3eEiMhQm8JDsD4h45HsebZIP7+cWQAlp6K3F8EJla4sfiKAlSO6P6A6fmdnVj3Ujt1ZP31ck7hdP1eDVdPzcHCmXndHgh9cCiKja+2492DqVZ/T+EqU9H6iUCRX8flU3z44qy8buWwpzaK+37fjDAJMLvFjQJnR2BapQc/+HxRdoEBxOLAtzc0gX2X9CMCXREYEXBhzZcC3Rag7j8aw6+fb8OHNRH+zXWVDz0fnASYAGpihQd3Xp7fo/F7b6iQEKE39AZgXCax/Lcn2xDwa1j71RKU5vdC/DkA609FdiZQ3xbHQy+04V//pwW/+FKgW1oJOz+O4OdPt+HuK/Mxa6IPvh6uJDqXjO6e6gTePRjBz7e0wufR8I8X+7tV3LUvBlFepOMP3xxG3023yA3OwB/VRrHsv5tx7hgvzqv0ZF3J7XvDOKvcjZXdmOhlnTgFHNIEdn4SwbLHmrvF4KPDUS5AeOgrJRhRSGOsbsEbgoGv/1k9dh2OYsrp2bd5TMvlvkebcH6lF6u/WIxRge4v/gxB1IOyyoebYvj9q+38e/jFogD6Qjs0W1AkRMiW1CAJV10bw+HGKNZ+tQwBP3Vug+S19roa5cUu/Gh+ANf86BiYUGBGlTfrNF/6IITZk3Jwx8zurR5mnQEFPKUJsG8nFE3gty8FuyVEOHgsho8OR/AfC8swjISZp/Q7PlGFY9/SrLN9eL061C0hAiuf162BxacfEehLAmyA3t1fzPBwxgQI9E12lx6Fz4bAhlfaMXGUB6sWBLIJTmEGMQHWxkyr9OLLDzWAfRf3zi04YbWlWeQJQ31qZHSkMcqlVCRAODXex6lUCqaWXpSnI9jZvb11hxtjGN+DLRCnUt2pLL0jMHqYC+w76M6vpUN8ZyRA6A61wR+WCQPCpAU++F801ZAIEIEeE2BbAa87L6fH8Sni4CNw5ZQc7Knt3jistxRIiNBbghSfCBABIkAEiAARIAJEgAgQASJwAgiw7Qyk5XICQA+gLNhC4Im2C0RChAH0gVBRiQARIAJEgAgQASJABIgAESACRIAInEwCJEQ4mfQpbyJABIgAESACRIAIEAEiQASIABEgAgOIAAkRBtDLGvhFbcfaNTWo2NR0EqsiyrD0jdQivLCpBnO3tKc+MO5UbznS92V/o67v00xbg0HwgPFaU4/qXlXF/g00YenKGjh9E2mzSVeOffWYu7IOL6SNaM87bcBuPWDfbrfK363UKXBPCKRrT7psR9J9Wz0phBmHfeOZvkszIJ2cZALpvpuMxUrb7rD3fgRr96WL3T/tEfvGM/Wl6UpD97tLIN377fq99ug766p43RjPOLeDtvqk/a67Koj1uXNe1jD8iuXX6/GFQ7qD7FZanl31XX30Ps13pfRp7Hvuem7R9d8FT5vVY2UN/9f1uIqlmamNHWQv31Yd8s5gA0KX/UegekszljcAaAiiYmUwq4ymTivG5qv9AGt8NsaxZNlwjN5yBLP2e7BtcSmq0qTCGrlZTbmouYVZrmUdUweq5pdj0Tg1Avvjb0T1eRW4f3o7DjQCUyqzdFHHGpmtETUxh3MPNiwbjtkOT8xb071YuDWIik0wymo+oZNsCPDvIoR30oRdOIe9W9vDfe14osGDJfL+G2GsL/Fhm7y2BZeX1m9K3gXAvoW3dfE9HovjnRIdo5XHmU5Zx7dgb6YQAMbndfltzK70YMHWGgAO9e0ieXqsEmBtRRDr1VsZz3WsMNsVtT2xRmLveVVAtGWfNMUxNZCl95Muvm+Ri1oGa77JqwCuGF+DBSvrum6TkpHo7CQQmH2hD6s2NmPtmX5bf2UrjNruqI+UvnL2vih2woUrLP2eGth63lftUdWZHmBjI+YCov+2ZkNXvSGgvl9LOuo4J4zqBh1VZZYAaS9437ajC4PKrI/MMObiiZ+Q8UzXbTTr96/Yn2xz01bc/mCcH/PQiFlr6ruuqz3uIL9W+zC1quq4qJoZVy72ph2Xq/HEuLzrvtZxDId2rH0mBEwrNsfXrN2curEDa/cFMreb1kLA+dtnY/cKM21bFNulH5dWNmPWxiOAORawBRnElyREGMQv95Sq2r563LMDWDG/olt/4LIO1bsjeAdxLFjJJkrsF8Is81wMoi/drQoOjGD8EMD986OYu7EOY5flGw9sA377xFKNnvY8g5DA6OjNqF0JHfY6C1ZMIYqZEJ2kEnB6D8b7TQ0M/i2NzzU6iHasfTsCNED5nlIj8Y7s6nJs4NoqXmwuNsLYBvIv7I9gamVxlp2okUYGIYHooJPl6WqQv35rDdZvTYYXZ9lMMu1xhup1APcvC+D+HlXfj0WLw2Llt6wcY400rIOvJjy3V8e8+VkKK3kamd6fmDgki9vVADuitKHJWMhmgqAEp9N+JDCuFA9MO4JZ25uwaFwG923Th2Nb4xHM2tSEmguN8tgmmNa2Lssyd6M9ch6AK/nsaETFjkblhjh1nhikBKMbTgTGlWLzHKGRt22xHMKrAgQm2GaCcQ+2ZSk84tlkagN4P6cUpo/HMynf0cYaLFeyM8d9xrfJ22jbt25tZ4EX9isJ2E953PSLD9bxpRI5w9+GEmpQns6+pRgH1jRi6Rt+LDJqKMYncrGuHa/sj2PheRnaLAcy6duCDGM4tiAJH7axBUb5G1eKJUxQ/kw9Lu1K2CXjyGNW71WUhy+Eyni243LbdyseO41PbREH8KVsgQZwFajopzwBpcF+x/GPzKEGaofGBRAubFhWzid+vOFy0ESo3u2QjrzFOt5l7KIda/k9NuBPNkCpQgoj4vg8bAt0YJYppReT/YXjPTLlbhztjYlolJ6oNLQtupHSkAuqfEOs7kyAxAUsZ7KrNBMjAAtTQDVhLRdmGR3dG21YXpyHmsUB2AchKVEBzL7FkE6/0SYeTx+OGlODgU0QgXdgHzizSWAR8Eyj0MRhMflk34OF451y6eKevcPjbCKYNwSl4F2QOgmPhRCCZfzCdpG9+c2wSza4Rxywt4OsvTsvjlmKdhP/xnvUzgD2gVm6NvMkAKIsDQIpE6cUMl0LlquuLgcXq++rF7HNfo5dikG9k+bfwjnFqHq7j9ojta/mpRCCLDhpgaXUkW70iIDZ78itocl2h6XHhNlOgnHWZy5palS031hf1dyzfgh9N57h3/HVrOQ2YQjv24QGakaNzh5BTBXOciE9utb861F2Az5ScsxcvUVUxmx/2CVfiAPeSVnI8GDDfB2rNiaFNlwoNN7jMD7LAtIbdZjFx3CpmshM0LFiTaMQrHItZJmeTbhulJH9PTwgg2R5TFnY4wI1DFkNPxIiZPnhULCeEhBqR1PmVGDJ/hosyKaBtkm92QQf04qyVC1KLafjYE1p6BbOyQN2xC0Dbx7H3A4RQM3VEGpP8t4bdVi/N/3kVZSiC0GD1H5QhBmppac7nIAcHPNvw9g6wB/4DeFQlpz4JA5YwYMzLYQYVlyVjeTc1gkZ2ZnaMCU+bKiMiG0RphTcNiBazCT4hnSdb6EBF1ysT6OFYtaoC0GDXG3c3J1VJzNxOukzAo6rc0mB0tRpeZjHNFXkFi2Wse175gIp9R4bRO+NwHmFQ5ZcN75neW0/yhWi1EGXPSRdnzgCyYmTPU/R1mSehDuvipkrtmyCNwdY3qBO9KxtD6b3T3skVsG73h5mrzVdZ0eAT3TtW+BMoaSOFXM8eGKvdYJsFZD7ueBJvcfGO+v3qtqdDmUp8TncVG5lOZ6xlt8QlNkF40qy9lP7eC75zbOQRntb4sMKqS1oTyDttdASWzE/m/FA2kQG5wPbIo6opCLkHJ+HDQjhHfU92gRAs9kinuUea+cicNaeTGK0LAQZfSwTklu3JsvwQhuwemUQFWuiypYUqWGY2raybda9+XHtU2VbRW/SGohxSYgwEN/agCpzUnrJ1cu6mjDJupkdFls5jjus7to6PD6Jk5Gtx+RgrR1rN7WhujGC9Q0wB/O8UwIwtZEZVRTaCdntW1YHaDYhg9FYWktiTBqU1Ub23NoJKjHUBlm5TacGgZRJG3sf+VzlTlU5S07ajK0LEPZkuY2O4lzUZDX5lp2QeIdL94MLkWCuxrDOKQQgjk8AsZ0h2/3IlvdsHegLYVbqG7cOxNhzpUO3BbevStse06VBwD447RYY/g6TWikvbKrDc4hgPRvsy/fLvtcdAIrDZjuT3R5S64TAKnhg312HQ1HFYMli20ERnFojWNsx6zO6OjUJiH6VqxXvq8fS7XHs3Mu2/MlvRbQjgI4DzKgib+Oy3Ccvv1de8ezao0+YDSJTW08QMwWsNoDJ9tj2gC6zIsA0m8SmziYs3RQG9ka4DRfZzrO+gdkImnJMvvcs7T3ZNEpUIYNocxyKl9IHdz2eEeUX3xXXAuQrxuy6JqmpZwpFRJ5i5VpoCJjjOZa3tEXEtC8UuzMsFrvu8neM2dpKrpDz8La8zTRsfMz7Q+FELuKAjXPrsLYphvV74zC3wfHxLoCSKDd6zW2VZWkfSn63HKNFyGC0PZKv8a1ZwstnliMbq3lRxTQSVh5RbBZJTUChCbqzsacawGFuS00dY5rCK0s52IVsj1MeDJobJEQYNK9ygFTEMkBJU2beOchnyuTNuMUH+07bGbYckZFSjmKCwGwyFKHqmUZIdc65W8KYtz+OqSU63mmSg/ssO92UXJQbSqOr3AWkGiJvEIeuCpSFSW8uzI6dTZrY+2O/ZMPN3vs9xl2wrQvQMZVfs9VZFzYstq46vOO0h9f8Zo2JGbuuDGN9o6GCzozVzQHWl+iY2hBLDtqz7ERl8ZyOFnVBJYAcSLKBUlbaPUpcOnUmYA5O5WPLgEbctA9UZVDzqAx0mGGvnYb6MDOcugER0c40Jgda2QkrzdQdTkT7mPpAtpvim828qp0am+4MBALGRIztDb5Kxz17pdrwEYCtRjfomFoSR7WcTGYr1MxQ9XTt0Wi2rUJq6zn0zRmSpEc9IMDbffa+l3nx3MoYVszPRfXGGixFHrBXvPed5qJIlsKjTOWQ4xZ7GHm/u+MZQ/UdNm2BdAImPn6TOzd4GcSCQCb7Q5ZtZPZyy+syY5srb+tpS6DE4njkjIQxwwcCzVgvt/quqedamMyg9NSG5CJKdgJyx5yMm8kFSK7BsJV95+k0EOzpGEJW9l1urEG1sbWKb/Nh21yn+bBzRxteuNovjGB3sbhpFVx4sWhxwNQqHerbkUmIYP/26Lp/CXTxx2pmbmoimHd6fCIH/jXLmJaBahMhjOqVYYxdVoHNvBMMc9d8s3kHp2Oeo2XjKHfngkpXmr34thVhc5KrFJ81xlsjfPuE2OcnBoNDvTFSCHVxGuerFijuYruIJZUmLOWdEBtssZVbpYNSwqUbxCTV8CqE0b036kQsw7jZPY1FqFkMLqF+Ync7Fo3zi32pxXnORhYbmSspYB4bRDn9TdhWjZ3KxQZWC/hA0hCE0EBIeZMn/lQMdHNRs2w4z1wa9hL7NJtx4KoKbAZb+YrglX1A1ThhQ2PKnKRtFrXUr2yqwdoAUyGOO25nsK70OmkTsHYlyAd70m4HLyNN8lTMA/ScCYeYx6EKoUml2kRgRvf2u1GzrJSvxi7Y34T7pweEQdkSj7PnmD5oj9hqtXWvMgmw+v7jMlZnz6tAzS0s9SY8xzMxjEc/E8UDy8oB7sGqHdXwo4pv4XNhg6PGXTuWrmxD1TTmNcum3cnTTW7H4pemQJ1fif96MJ7hW1RLdKPvC3MNQpaYoxBfZqVs6xOevjzY0CdbQZuwdKOYHEsVeRLOS+jGkY2PmdbHsgo+npFbAJhQkRmbfq64AjVXi7/3594AZk8XW+imVjp7ITrAXMDCgymA43YGq3auWBTiNs24UKArr2iizGLin9QO5H8rhoANxYYRxk1N2MaGT5bvOvk3luLZS8HywqZGq3FHPocYeguDJERQPgo67V8CYvVUNDRshY67bswySyF5VwNbOzzWYEiLsWoodm5KpA1JKrPPIBoHtlpnhDZcE/EGEMxNnwcPqJ0uHyAxF0gR4cblWB2W2wQE5iTCYtBFKY3h+k8YcXQwQNNg67Bt6SspDc1TY7DCNA3Y4HnRMWaXQv0OPLiCk7FOuqayARJbhRufi/vHAUt7Qk/RLOHfItNCkLYPri7HZiNN5upn+X42eAN3GWq3VMw7HubmFODxP9lkGIg0rQx33YEJ94CG0TSLxxKRrt14qZMAQoSk/zMS6KYmSXKVNrWNSxpx9WNeSSO4oAnM/Z7iapQVxvzGIVzPltVj7g6bgEAO6OT3l1IJw7WbXO1Lcamr/s2wyEnNnZSk6EY/EhB/61a1WCU7myCRPzH7hKQGCu93djDDw4Y7Ybk6zPq+Sg+wVQjHwVyLVvotQs2+aI9Q7OZpylW+FPsd9npYBuxKfek0CwKK8JtPWtjqrHRdXYrNi40kzvRg6g4hrARzu2d6IxLP2TcjXAsn3WZbJ1Kp2wNSCtfj8QzbourCvGkxvMOMGl8Yxdw1bXxCma6vEmMrowSmpy+r+2xznCcLaoz3pPvnhXOsWoeAC2PZGM+wk4QULUTbgpC5dVFmMISOZptitFnsvRnj3CR35kY4CCG0BHcxOu8qVUAuhDXifbDxfxhLd0SU79duM8GBr1kOY2uwsp3FDM3feyTFvWn1lg7snJaLefuDfHw2+5Y8LFwTxSvM0HE3flOKWZ3EAoCTFw+rACTVyHE3shoQQUmIMCBe0yAppNqopzTY9jraBs7MZoEheOAdirmaZqx22KMr13YBhMV6rDIoEw1gPaoarW76pFR627QYZjXlCoMuTEW0h78UtWnD2B5pImQAyr6dZ4AH5ngw620dl7LOf5wqZWZx2bfQnFydsyTnhzA8aNGJtITIeKF+uzygdSIm1d2Yf3Q+eNvSJoyaKZ4blq4MAnOKsaKxEdXnCSN3zH5Cz36Gup4a2eg8yUuDCqXn51wd07CfkU0qYjKnDEgsbZxsz4RPaSZoWtskDFFJq+Nmu2Z844vYt8P2s/f0pwi+ZBJmHmkFEDIkHfufgMPfMM/U6NNMYbdTSUSYpM0L1f1xsq+EFI5vqcdOi2tRmUdftUdCWG/dhS7zkEJ7p3rQve4RSBU8WYQ2UkAzTgor61HNjUbLCbSIz8YaG8Y3YlUgX3i86l4hLKG7O54Rk7kiLIJh0I61U4tFudZb2kxLNoDURHBo12RINlZbFTAWqDKEk+H5UZ2YGg/kmE9OlC3hh+IFF1gpGgAWwXRSCC2Flmu3xKwuRuUq/Xwfdm6MYwlfNJHbT3sGtHvbJYRXrnnzvcD+oJFhAPcvFsIysTDTnXLI7YJKHFlHKcxVHg3mUxIiDOa3ewrVLTnAFvv1uATaYcVeTPhZo2SVMvemKkxSuo0bflJWa0xDPMmVmdkX+jB1YwjLmcRZUZNj8dngiHV+8icbMLaSPMtiKVmVXsuJAyDDc4MzMhE6Zk+ADzSE9FlESh1MmYmlGEZKdnJmmDQnjuqUhqBp8zIxKLZo0fCJexxXSGGB9FW8I86FXnKCCMiVQ7aXU2YubW+EsXRlIzeOJZ8IF5DGlRwYQoZXpftmDDrpUwJSHTPZPqRLnrdZXDOlHDXFdajg22bk6qA0uOo1vctUXZ2LhSuDWN7Avks5uAdMTQa5VYZlaGhDMPXkirSG65Tvuw/2vaerJ90/lQiw9kQYD0sap2PlY21UB6rOlG1EAIumMRfFIa6ym/Tg0hftEdB7mx6nEtOBUBYheBrLbOGo2nDS60+lbE/8WHReG5ZvDeEd1n/J/snYxse0NpkWivyJ98i24ynGDflDRTvSXHDp3XjmkyYXltziByxW8W0CNTYhc1pllgVOEerLB+yolFm5LQX9/FY3tcyUZIbmKRO0MK24jSEkNXmT2gB8UYeRmZ6PFcx17A62Aq94A5KCmn31WCUJyr7qGLNboAgobMbGLe9NxoUwuJ6qXWIGsJ7si3IPb2y7inDxLh93Z0zVB7ZFZLaD6EhChEH0Mk/NqsjJHptQl5sDaW7tdyWbmhsuiVhnxwyezJF7/bpfG3MQnhI1qfq9aks7Zl/t5+4aeSfMOrNu/+QEwws0BU0NCUsyhlRS3pODLSEkkXdtR/t2BkX7whaSLpXBkIAhvzN2pUyquklKars4RjPVHoVBntlswG50qklhgWNM55uK7Y3qNGUWKyIyuuzEhDAjuQopn4ujfTtDb3hYUx5CV8wIJ5vkW9QxM9TfrtK9vQmLxgW4C8dZXNVcDu4zpOHwiKuIF+dhNNtGZQqTlICG9ol5Rw6OeftjHZiZYWDVouH3lQlCMhydndIEzO0qHVi7L4BF41gbGOTGPNm2rW7/ut0eyQG40+RTyd2+ncHo5zPtN1Zi02kKgaQq9do3wLdm8m0pTMXcFBakRMpwQ9pmEau0TpM2ocGUTKJX45lbhM0YtuVP/NS+W94TR6vdF2XvehotA9ZfmpoI1qQsV3JRx0k4mwyoLggZd53a4GSEQX1mbsN9ux6LppeiivU9XGA+3LJFKlsIPD1uo0Xx8mCJbGgyWe6Jixc2BYU7bafvnfWBcGGJ2gaOK+VbWZlNNMtPafMs950upNCD2TVaafPooYS3b2dIevBSAg2iUxIiDKKXeWpWxSZhNgop909yo2FbmWs88VsvGyh5I8ORGR4TWgAebHBqTMy4yTKwzrBiJZPAM6GGIik1JNuYVowNTY1YsKY+uefdTMc4kQ0Pm2BsT0rz7cGS16yT1jFvvh+zxwkfzcln7Ex0orSdwUol6ytjIjVvfh4WbmTGxpjxxCNYa+4VzTqlzAGlNJ2v9jGvCIbasPLtCSGRtJLeiKXFfsP+RmrSshNltjeSA6rUcOYdJsQo8WDbuAAWLQsIA4/mQ7mfkCxMq0h6dM4HRxEuHJSGttKnIwbgU6cJA1JSa8kiJJ2vCE/5tyOMHW4LdGDWxjqMTav+KNLmqy2NSS2o9GUBN+bJLZZP9ztOKGg7QyZ6A+yZOZFi/UcNKpitFTbJMe2rGFowO5hXojxUbwxi7hZvWltE3W6PeD/IbHr4MXu638EmkTEJyLgtY4AxPyWKm1SlZv1NxVbmWo/Z6FEElYYQUXqhmrWpydzDnlIFLhwXY6gDppZcSijlRl+PZ5LjM5GJ8d2M92BnID/t96oUqJunYhGI2Suqmh7gXkXsCQjhfXLfv/35ULw2t62w/nGlcCPKBE7JPtIQBjFvMXPimLX1CKrKkhp5VmZyIY5p+rVZH2W6MsbpXLsmzZY8Prco8TkbkLWlzdu88bnGVlfbQ9ulDDt7XACzpS01NYyxcGjaplGfDeJzEiIM4pd76lQtdeU0rcYB+0PkGgpG6Q3Jb9J4S7JWl5r+ko17ttU3i6qTbHzkxI8ZdVlZg1XMzkJxGyq2ikmDNPa4gvuYrUsaq4JQ3WQ5vbBd7GVmqqEvbM9kUVh4D2DbIMTkL1l2OusLAkqntawcVWyCxpMVqr58YK0YAOqLHIWQgKUktqqM5kKpNm5d+sCaRmEHwZgUzmZW0rfWwOqPmGkTsPhSHY8JspidBqsxSEtZ+V7Qrl1aWeLQRY8IyG1X6TRS2JanVRtt6rJsAG9O3JS2jrddXjHBkwbEmE9yczUrgA1NNVhg82XNV8mg4xPebhiqyFvSePHgtdQxjx2Zqqhl33uPEFCkE0FA6Y/SZuewgi/CJjWt5Pdqahsx1WDjexq7vQYL9ibDYn4Uc9m32xRWJpQ9bY+S/WCPtLDSVpoeZEVAGetwzQGmar6yhquaL2o8glncDoJhi2I680IVRMWaqLIwIrRIEAhj7dti7MPeI1P1XiA2BVEAACAASURBVJ/uuysRJevP8YzoX9k3KyanYtGn2WJ8L9kHpyNla5/VYKztrQzb7BWpAeg8PQFjvMXGL4bmGtvOW/E2E2C5sXaloR1gTO63se9Qca/I0+VaAmwbhGEzim0bfqMtjWcQUZKF/CDzFt9GcluWvK+WmoVRFgjVR+q5aaBTEb6pzy3ncryWTVhLxEF/cQoIEeJorIuBrUX7ijwoZh6t1F8oitrmBNx+N0rzNfVJ/5+zvDt0jAzoPcsrGkN9m4bStPGTdc8r8aDgFHgbPatoV7GSkvOuQsJc7U0fMu22hTRxZafDOtvN5qqxH/cvC/BtDUySLzstkauQjPN9h2vqsa4ygtuN/cgL5wDPbWUTyGRj4jjhMKSSTMvglf1xLDQM6aWvFT3JSEAZNDHeVfxa+A2uUdXWzESM1Q0WbmUN3ybTK/VZOehnnaeqwcL9o7OJY6NwpaeuBrHvke8jZBoJQBXbK8gFCB5sQBgL2IDG/B6Vwb5ZB2H0h2k8QK76KbY6lGB02gcERDth23ZlT9dc/bU/kKu+whaGuhrMPDMsYt/hRuHWNdkGCWN03F4L00iYAyzYKrYgTJ3mxoH9Eay4SgyGuKaKKXxQ8ubfpYgjV0qSAywlHJ2eWgQyfEfZFVQKq2zfKzc2ywbWTFPK1lbxPEW8uVvArZT3uD3i1slZm5XsB7MrN4XqHQE5aRKTqeQqcCmYCzzWhs3ibn9V7SchVK9iCyObmrABQcMzg44V50XxxH4fHuBCUKHqzYUSZr8kSis0mNh5P4xnZN/qsJ1VrH6L79nUtLEvHnUTKGPExhAk/OoGODn+Yn2QMsapYu+CvT9mNHpasUULir87biPoCKpiHjzxorEFYHweN27IvjPzHRhCCavNMNFWiVLatVVk2dPdl8/TH9liICtz8m8ofVjuwYOV0fZ3kSHGkHmkJRKJhL22ew4ehcuXi9y8PPujPrqO48DrrageXogrxgXxHz/uBNPImnN5Kb75qU48ty2CqksLMNYH1L3UgC+9zixe67j9lhLcNCa1CPu2NuCbbJI3PgdP3ZQPtHZi+wdRdKYGdbijY/x0Pyocnrz39HEs3ZkAdA23zB2GWyc6BMpwq+W1Rtz6cgzIdeMHi/zwvhuGNiMfk01hQZtR9/R1y5B8jx49v7MT//1aB/50b2mP4lOkwU3g+p/V4wsX5eLyKTlZV/R7G5sx4wwv7pydn3UcCji4COzYH8Zdv2nEU/dl367s/DgC9u28+cMRgwsG1aZXBP7liRZ0RBL41rXZtyeP/rUdu2uiePBLxb3KmyITATuB3rRtbJxVXuyyJ0nXRMBC4ILvH8W/zS/ClNOF9qrlYZqL635cz9u7aZViK12aYHR7CBHY/HYH1jwfxG/u6vt+sCMYhB6PYMyoYRai5nTWcrefL2pebMLXt8eBwhaUf0VtYBOo3taOX+6II1odx08W56P2iOEyK9+FCQ4CBMeiNoSwcVsEexwf2m+68N3pfrS80oQX6tVnCew/aMhX4kD1rias3qU+T3Ne6sPdl+byh9XHjLKXJrB1TQtejQOXuHMx+XygviGOKBJcAwNIoKMtgto6IK9Ex3vPtyI0sRCzTu+hBkSaotFtIkAEiAARIAJEgAgQASJABIgAESACvSFwUoQIFZfm4uZdQfyhLYoX3lUmyh1BbP6ATa413HxZISZGg3jWcKSeO9KF0roIapXadr0FQMNlF/pwvpMB/vYINmyPmek1HI1ii8VVn5IREtixO6reSH8ec+Nu/rQD738ihBCfqsjDJd4WvLoXeHVXELeVJ/DTTaqQI4HHNjfjMehYMEPHn9+NouHdRtTcOAy3npk+K3pCBIgAESACRIAIEAEiQASIABEgAkTgRBI4CUKECF57PoSjXg1jR+lwfRLBTqPGHx6IYkq5jpI6wNUeReTdCLYZi/kdezrxlT3qBgUdt1+g45kPY4hFDI2BgyF8ZXUIF50tq6Xh9HH5mOmkwXCwGU9uj5msvT4NIxXtyWB7Aq1G3oF8DVkrd/sMuw27wniFGx3VMeNsLy487EbB3ihaj0bwUq0HJfkaRjLzam0Jvu2iIE9DHhL4w3axDaOg0odrSIBgvh86IQJEgAgQASJABIgAESACQ52Ax60hnOXa5lBnRfXvPwJytt1/OaSkHEPNx1G8zA2MxXBAeV5zOIoa4/qthihG1ceQ8W8klkBtm2LSIcqugVZTNpDA66834aiT25pwHEeVvC+4bhguMK4ju5rx9T9G0AqgYHwOVt+Uj0IlbDanuw5EDS0HDYEywFPswc37NYw4Nx8XVLrg4QY6kjYR5l1XiPI3m/Ejpg2R68LdV+TDMIabTXZZh/G4NISl0CXrWBRwqBCImn872dfY4wIiGf9Qs0+LQg5MAmwwwwY19CMCRIAIEAEiQAT6l8CYUhc+qIngoiqyidC/pAdO6oebYijMPbHjsJNgWDGGPe924HAIaD0axoYP4wga7+ics32YVaaBLebneGN48tkI3gMwbJIfj8xlexI68div27ChEbjssmFYUtyK1e/F0d4Qw8v1CaBQx9UjdYwr1/DsS+p2gUwfgQvfva8YF5tBwvjz+hY8eITd0HH7tV5E90Rx3Hye4cTvxs1X5WN4NIgHf9GBPzOXE3DhW1/KxyRDq8HtT6D6r+14mxvCjWPn7jhqoGF0MXCkMcGFJsNHunBeoYZxkwO4xmquNEPm2T1ixljoRwSIABEgAkSACBABIkAEiAARIAKDh0B3DFxnW+tTyLCiC2POcOPQ1nY88lEcnTrgjoNPno8fCuOXBzVcd74fU4+EuACBVfB4exzMiZUHURxpZHc0FDBpS1Uh7q4CmHcGLkQo8+LuG/OBg814lpOx2kTY/2EnHmfqByPc+H8TpRKGjrEKxYbXgniYCxCAkok+3FAYxXd2R7Mz0lii4RoAOW+F8QwXILCEE9j8ZDN+zjUvgDOm5eDij6PYYlyLrBP4hNdLXNXVxrClFpgzGjw9pXh0SgSIABEgAkSACBABIkAEiAARIAJE4KQRkDPpE1eAAy1Y+ocwPmIr87qG66/0on1LiLt47GCq1ME4nnypDU+qJWoS2x6qDsrtDxpK07onTiBiqmRbbSK4PukE38OQ78bM6YoBBCOvyL5m/NurcguFhs9MzoPH34bpZyZwhloeeR5PYBcrk3DTDbdbgwthvLRLpiEDqkcXPnVBDoYzIUNnFH/aEcVHPL6GS6b5cFFBMmzAye9k8jGdEQEiQASIABEgAkSACBABIkAEiAAROKEETrwQYawXMwJh7A258LWrc1BwPIQ/GlU+b0YJ5ue0YNUzUeSO0PBWjbEHoDGG3ceAEYfjQiPAp+P00UakaAxt4aRhxUU/78S5k6Wv1TjWbarHOjvSvZ247seKkcYSD/7jJhee2hwRwg0eXoPOvE+W5eOWG+0JAJ0ft2L1n0KmAGF0VQ6WXp+P0WjDU8fU8Bpu+kop8Hi9sHcADWd8Kg+F77Vg1atRfGTsJb/wQj9um+SGdHjpK/Kg2KemQ+dEgAgQASJABIgAESACRIAIEAEiQAROLoETL0RADmZfBcwclYOctxpx+0ts1V7H7beU4CbuRaEIP5qQQASd2PxSFLEDIayrj+PdPWH4DxoqBsNdYKYCDr7YgG9tZy4hjV80gWPsIg6YygjyWRfHv7/Yia0dXQQyHtf9tRF3vxrjXhXg1jH/qgLcPNkDIbrwoKKkEwWtGlpDitFHI26sNYS164J4qlbYP5A5bt8exPbt8gqYc3kpvnl+8prOiAARIAJEgAgQASJABIgAESACRIAInGwCJ0GI0IYNGzuxFdz/oVF/u8aAIVS4HHjv6TBQn8Dr77WhsUkEn1Hp594SGg1bCibEQh03VnlxcU4E3+Y3rUYT/yq1Acbn4KmbrNsZDj7PjBTEUZKroaHDmPwfacHqtw1tCDMToL0hLgQIAMaP0tFYHcSvq40AfjcmjnDh1vHAg2+kijJcoTi22wQIqgtJ1bWkkiWdEgEiQASIABHodwKFwzw4jfk07ozhg+P2/k/H6AoXCmJx7K2NwTT901+lynXh7BKd2xaqr4uiztg6aM+OlxlO5bWHHADXHi+umxLHs29H+5/vAMBBRSQCRIAIEIFTk8BJECJoKMjXUBZJ4BgbgegayvzMhwEA5qJR2WXAbk2ucqNiZwQ1DXF8xG7oLvzDZKH0P6bcjWunaRjbGsYvdyeAMi8WzcmHEAgAKNZw5JkmrOaeEIBjcpvBsTBWP2lIJEp9uPvSXIypcGFSsxdLTovgSy8ak/+2GLbsThUEqK9y78dRMK+M5q9Ew8ybCjBhbyseNG8qJ6U5+IK7A7sAPL2XDdBcuOtu6R2iE48/1IZ1FqOLSlw6JQJEgAgQASLQxwQKzyzAP0+M4Ht/7MSCW0pwRzmAI0FcsDqIOTcU4dwPW/Cz3XGgogD/tTgHzFxP/a4mXPM7BzHCxAD+cqsPpYjike8fx2q4cPllfpybm12hP36/FY8fNMJeGsC6mWyYEsfLvz+Gez+0pTG8EI9/LRdjmJyhqRN3/rQZ79iC9O2lBzddm4PTe5GopX4p6bhx950B3FGu4Z6ZYTz+dDN+ybjTjwgQASJABIjAKUbgJAgR8rDoqy7k/7YNG0LAyIm5+OVcP/e88PyjTfj5J4C71I3z+NYGAFW5+MyICH7NvCoAKKjy4hJpfPDsQiw+W3hnYF4QxC+BQ0xFgf3yNbR/HLF5QgDQEseWFiNMzI27WdgzCrFiggbPW4qbhHwXrj4z1eem6VISGs4a60Kl6qbV78KIYrextUEUw/q/hknn+jGpuQNPc+lDDD8it4tWRHRFBIgAESACJ4bA2CL8fmEORiKOB2pCeF/J1Te5CEum+VB2wTCMfeIYVo5yYyR/nsD+XQ4CBCVu8tSNay/0Y6bst5MPHM8+iipChJQQHnz19gJcZAokNPiZnJ8JEQI+rPhaCerN/Y1AS3UrvvF8BJhaiEem93y4Y6YDHz77D36clVKu7G+kr58bX/xKMRaUizGHP1dDRwMJELInSyGJABEgAkTgRBLoea/ai1LWvNaOPxir7bXvt+P2oyFcmhPHs4fYYEDHrZcVYJyRfmRfJ95uSWbmaYvhQBSoSlvydnzA0gFQWeqCPyj0H0dWerGAL1eIZ40HQ3h4vxQ8AHBrqRP/8kLcPUOEV/83XUpCw4wZAcOWgxoi/fmBv7Xhqztc+PblyTC0nSHJgs6IABEgAkTgBBI40ILf7PVi2XgdEy7M4w6MRO467vy0F2U60Ly3Dd9+W8OXLzKM/0Zj2HvEg7MVD0KR1iiqW5Q+1aEKrbWd2LzPaWKs4/zzclDFtlFk/Ok4c6QHkxwFEhpGjPRghBK/vo1JF5iBZA8mnZZ20KDEcD4103F+3Ad3hQDhq2N0rpUZaQphxeom/EXaacr14ftfLsT0plbcuqETypCoD/KmJIgAESACRIAIdJ9Az3vV7udlxqi4tAQbqtrx0ludePT9OBrqY3jaeJpb7sJZfjYQ0dDwQTN+8pcI3ldWFhpqwvjehmYs/2wRzik2kzRPIn+L4EW+QKJhSrkbMNQi80u8mDk9OULZ1xoGVCGCmUJ/nCQQM8ZNUaUuIifaztAfxClNIkAEiAAR6JrAxMsD+Gw+0BaMoibuxaeGGXECXkw7HkNtyIV4woVxnjxcJGfobjduWVyCW5Tk63d14pMxXozXNOTx+y58flkZ5h0N410jXKipE6uedtJg8OFnUxQhwhlFeOILXhS5pCagjumfK8PztSE8VhvBsGYNw8rcGOmKY39tDMaORbjy3JhQDBw7KuwntBxxElgohe72aRtu+34b2PaPb5R34IcvKR36lcPwJt964bDVw5ODb83V8eST7XJIkszZ48V3FwfwueGiru11Hbh3TQveMu0/uHHvl4twwwgNGFGETQuAW0iQkORHZ0SACBABInBSCJx4IcKxDrz6fhh/OxLD64fjMCwTmJXvqInge4824bLTgNf2Jw0Yloxx4+y6KF7tADrrIli2rhFLb/AhWhfDh/vlQCGBVz+MopWl5nPhvCnA/tdF0gfeC+IrHwXNfGKRzCsmZkB+Esbf3wgbZY3j73tkftZQaa86gnhT7vFk3hyuKcDF7byUYH4kHlx9HI8YkYNyNJQ2MXpABIgAESACRKBvCAwvd2PSCLZir2OCmP2LhHNdmHSakccIN866yoUzjIX9dDn7c3Vu9Fg818BU8uGTggCgYFQ+HrlLzUSmpGF4UsYPeDTkWtICfDk6fL44fvVwEzrvLMXXuAtkHfktLfj8o0ww4cNPvhPABKZ4UKZjx9p6LD8g008eP3r5KG57Nnmd9kwRCqhhZnx2GH58vhv+eA6Kj9fj3ve6GkswOweFuLVcw+fP8uGhhxvx23qRoq88H6vvyMO5HEkCtXva8LVH7IKGKH72YAtG3VOEmYVA2VlF2HQbcOPvOsnwovpi6JwIEAEiQAROKIETL0QoAz7+MIItUh9P13BmlRdfn5ODxrfa8MiOGAonuBDZw5w8it/oibn44fV5KNjXgs7NYbzVAZw1ORcXJEK4d1sE+41wBV4N+V4NbiQwdnIOpgHms2gogVqnBZCscCew971OrDU6fjOKrmFYiXmV/iQ3D9dPDeP1XTq+/oUizCzTgLeSwZvauhqEJMPSGREgAkSACBCBviLw0Tvt2NigA34P5kz2oEyOCprCeLI6ik62It4Rx6en+YQB5FAY/76iEY8BmLOgDPefpQO17fjs76L47l0uRD0unDFChw9xHDoUQ/OxGHCGKK2v0I1JhVmUvCWK6kM6jvpdmGR4Z2DaBccbEzi7woU3Xwvhk1E5GO1OIOr3Ym5FHNGZBXySzVI/sqsNGyNsu0Uch2pifar+//qrEdSd58ZYXcfMeSW4u/Y4VtvHBmYVNcy5LWnnQI8n8Ekze6jj4s8E8M/TPSjmgpkEjuwK4tEjLnzuWvteDR2Vp7tQEIojDB3MBFPZhCI8SYIEkzKdEAEiQASIwIknIIcLJzDnXHx6ciderAZmnenD7Av8KOcrCsDYWcWYelEcnT4drn3NqP2fKE67KB93X+IDX6QYV4jvzQ9iw9YoLpyVA487ivEQQoRAsQu3npuPC8bk4Nt6G3S+dUGKIYDKKX5873yPWc/at1qwfGe2k3cfTi9r464mTW8SHh1XXVKAy+z9vZmDeqKhak4hfjXNjZKULRgufP2L+TiHB4/guf9tx2OKbUc1FTonAkSACBABItCXBGp3d+KdsUX47hQPSlzgW+9cbGLrdWP2NA/aP+7AAx94cW3AyNWnYxTrSiPAWYVCNSEUiiOEDvzLgx2A4Z2BCRG2PtiA1fDhZ/f5eWSLTYSRPswfxzwtxfDW/4UgvSR/zNww1bThG8y9EdcGYHkk8OHWBvxpWhnWLVbdM2soH+vHPy8W6Usu5WcXYd3Z7Ep6iJBP+uBY34Jvv+rB+plu+L1uLFgUwEcPNGGrQ9JjrizB8gnCzgHCUWxY24StfJuCC9dOlAIEFlFD+YR83MvUKLL8lU0oxMabgPmPk0ZClsgoGBEgAkSACPQhgZMgRAAqLi3GQ5emqYVPNwUG938DyFFUIVkMT1keFs2XcfPxzfvy8U15yY9uXDzXHO3gqhtduCQOuP1ulOYn1SqHzSzEQ+ezgZJwF2kmMaUAD50uhAt5ipbBtOuH4anrzVBdn5xfjKdY+ubPJkBIec4CerDgTj8WmHHohAgQASJABIhAfxHw4d/vCWCWoR3QeLANL3vzcQNz8ejWoLPJ7Vg/fjJWzV/HGOae4D0fxhnz+RbDgLEaSp77PMl+12IT4Uov5nMLygm893QrVssIGY6hUAItHXI7oYZcH8DuyTupUZNbIlOf9fzOwWeb8Oj4YfhyhQZXoQ/fvS0Xr9RY0/NNDmDNJW5w8UY8jpefaFA0FiL4r11RXD7DMFTJZDLhODoUj9KtzTE0KSYXkqnrGDXKhWJdw+hz8vH9HZ1YLtUxk4HojAgQASJABIhAvxI4KUKE7GqkIcfQUMguvFMoDQWlHjgpC3jyPRipLmjI6D43Rg6XF3QkAkSACBABIjBYCYSw+XAcs/I17HmrBetaPbiB7QNkv+PtuOaJOH56az7OicXRPsyFUv5AR+UED3DIh9N555rA4U/CIg40DC9gwgf2c+Hz3x+OBY1h/NV4WjohgDd/aFyYBzfu+OEI3GFex/Hy74/h3g/NG3ylfvysEnyjoR2XrzQMB00txtbPeZHvTmDfO834xz/JMqjx+us8hl9tbMfF38jDmZEI/vLXEEJjrdoQodow9rZ4UVaYwMuPpdpOqH2mCQteS6D6eHoRSLrSj7lyGNbPAP7yuwb8iAQI6TDRfSJABIgAEehHAqewEKEfa01JEwEiQASIABEgAnhpSwu+83wYL3bk47ElflTqVu8CX/9pB3we4Jqbi3Cu7sHcCToqKnJx7iUejOb8YtizE8AZRXhqYQ5GCgkCn/j7DWOJunkvS+CTS/DqfA98ZjwNFRUeoETHI3eJRHMK3ShiyXk0lFQyg40OaXeE8eN1bbDIIxyCZXdLw/CRbpSayoshrH0ujrwjEeyPuHC2Yi9S97hwti+CNY+3Yde4OF5sdCvuMBOor2PeI2KoPr0Qj9zck2FYFD+/vxlPmh4csqsBhSICRIAIEAEi0FcEetJ79VXelA4RIAJEgAgQASJwEgnc/YUA7mDbF5SfXWOgflcTrvldE/73/GJ8eoIXBWU+3M9sF7E4xyJ4hLlZKtXAbSmY6cRx6EAEr74Zx9SbxU2LZwTT+4GD3YLzi/HCuczfgvKLJdDmZh4jzFm88ZC5e/RAeqZUYgCtcTDFwr4RInhx3+0BzHRSbbRkCpSML8C6xcmbd8xOngOKpkWZB5NO68kwTMObJEBQodI5ESACRIAInGACPem9TnARKTsiQASIABEgAkSgPwh0huJo6dSQl6NxoUCoM44QNwvE3CxqSJojBphrpPev9GKGX0eZYUdh/94galnB9oTxt0NA8JiOS6d6UMIMKz7chNVnBPA0L3gc4eHFeOQuw0aCX6oZ6JhzVwku4GGiePzBFmxuiqOuIYr3QxpmlDOhQRwvbzqGf9fz8I9jdEyY5MdUpoYQjmLbW2Ec4XE1nHNOLiaxbYqRKF55M4xDHREwO42n/i8B5n2irgvBANO+GF+YtDFx6teLSkgEiAARIAKDlQAJEQbrm6V6EQEiQASIABHogsBvHq7HwQWluP8sDegM4z9/3IjHIsCY64fhvy90A/E4du6Q/pE7sXZPPmacY2gDMHsAz0hrgO1Y+mC78M4wNZmpb5wLwkZxHJ0eNy44TQoPZBgdp52m4zR+qeFNdtzTjFtWGd4ZFC2J2veDWBUP4C//IOI21Yaw4cU2/L0DYHYCbjDsHDUfDGLJ00nvTDKn3h3Z1ogG/MauCCETvbAQ66aJIVXD3lbc82w6iQDbziAjyaPwPmG1AyGfJY+fvq0MPyUhQhIInREBIkAEiMBJI0BChJOGnjImAkSACBABInCSCYwtwN1nGBP7HC+WfK8MNxyNo3yU8BxwbHcrlsv9AJ4c3FihCAESOiqZ8OG99O6SPz/GJbY9BGPYHdGFxkFnFFvfDuOYrHqBF3OnuB2NIMsg8njVZDfcbH7uAQKn5+E3S/04djwO9zCX8IQQjmDd79MLENx5HsU+gUzV4ajYOBBPE6irjSBl/i+jBuUJEI/E8EFNOiFCMhydEQEiQASIABEYqARIiDBQ3xyVmwgQASJABIhAbwkcaMGNP+rAvKvzsWiKFyO8Os6U2gLRGN7/KMZtE4RK/fivO/IxI6Co03tduObmYSjOb8LXX3fwR+jJw2WjRPhQfQTvwINbWXkjMWx5uhUvybJPDOCKLIUIz/yhHs9AxzkX5OM7V+birFwNZWVJ9YCjH3fib2xkk2YOP35aCdZJDxQy/5N+1FB+TgGWVGYuSJnKPnNQekoEiAARIAJEoF8JkBChX/FS4kSACBABIkAETlUCHnz2Kj8ur3SjcrgLI7y2crpdmHVDMSZOj8FT5kaJnKuHo3ivyYXJwzXA5cKMuSXYUNCMP3q8mHCax3AFCRRclYOzuVGFBHbtCgJjDDeIeV78YFkZTOeGmgbLwv+YXCyZ5IZfCjN4sYR3hDNG+/CZST5MGuXCyFxbeQGMOKMAv1maj2NHw9j8XAt+udvMJTXwKXNHQ9UUP6pOmfJQQYgAESACRIAIZCZAQoTMfOgpESACRIAIEIFBSiCCSLkXM5TJeqg1giefbMbm0nz800wfxocj+Ej3YKYhQIgFI/jVQw34bXMO/vVrhbhmmIZYSxjrtmn4zLf9uERKAyIJdLYCLXGgOBjGhlcAjDEw6hrycxWNBjvdqBcz/yEHFfJ+PI7aYzn4wZ2FuMCQQ8hHsUgcH77VgvteARZ8vgCfOd2FAl1DWbkPV57jShEi7N3RgH/dLmNnOCo2DjKEokdEgAgQASJABIYkARIiDMnXTpUmAkSACBABIgD8eVsIt1d4gZowNr3Qhic+Nlbudzfj1v/TUZgbR0s0Bw8sKcK57R1Y/nAL/trByHXin34RxaHbi3D2u83YGkngrJYiLkSIhOM49F4QP38phCd9xfhuTGxd+LQEHgxj1fo2/E1ej8nHA9d6DQOMAGqiqI8AFR6ACQk+fj+I/6zvRPFbfjw+0w09HEddXQSv7AjioTcjaDHS+dnDIfyi0IevMWFCWQyP/NHY03AsgvcPCbsN+w9E8EGNzDjD8UAE748QcVqO9Lc2g+L2MUORuGHFCYpNigxh6RERIAJEgAgQgf4koCUSiRSLSHsOHoXLl4vcPLmk0J9FoLRPJIHrflx/IrOjvIgAESACRGAQEPDl6kBHHNJPQ0+q5GMuCgs0IBbH3tpYMi2PC1XDdXgQx6GamCkUSM3DEGpwIUbqU7pDBIgAESACMMutcQAABAZJREFURGAoE3jqvtI+r35HMAg9HsGYUcMsaZMmggUHXRABIkAEiAARIAJ2AqGO3q/Gh1qi+ECqDagZRGKorpGuItUH9vM4WkiAYIdC10SACBABIkAETjgB0os74cgpQyJABIgAESACRIAIEAEiQASIABEgAgOTAAkRBuZ7o1ITASJABIgAESACRIAIEAEiQASIABE44QQchQgejxtI9F518YTXhjIkAkSACBABIkAEiAARIAJEgAgQASJABHpNgPlS0h0cKjkKEXJ9HsSj0V5nSgkQASJABIgAESACRIAIEAEiQASIABEgAgOPQDwWgc/rSSm4o3eGlrYOHKlrRmHpMGiao5whJSG6QQSIABEgAkSACBABIkAEiAARIAJEgAgMfALMiWPL8XqUlxWhMD/XUiFHCUFBXg7cHh3trW2WwHRBBIgAESACRIAIEAEiQASIABEgAkSACAxuAh1tbXC7dDDZgP3nKETQNA0Vw4sRCXWgsz2IRMIeja6JABEgAkSACBABIkAEiAARIAJEgAgQgcFEgM39mQwg3NmOUcMDYLIB+89xO4MM1BrsxOFjTdB1F3y5frjcHrjcLvmYjkSACBABIkAEiAARIAJEgAgQASJABIjAACcQi0URi0QR6mhHPBbDyNIiFBVYtzHIKmYUIrBA0VgctceaEewIIR4njw0SHB2JABEgAkSACBABIkAEiAARIAJEgAgMFgKarsHv86F8eBE8GZQHuhQiqEDCkSii0Zh6i86JABEgAkSACBABIkAEiAARIAJEgAgQgQFMwOVywed1Z1WDbgkRskqRAhEBIkAEiAARIAJEgAgQASJABIgAESACg5KAo2HFQVlTqhQRIAJEgAgQASJABIgAESACRIAIEAEi0CsCJEToFT6KTASIABEgAkSACBABIkAEiAARIAJEYOgQ6HLTQyKRQCgcJaOKQ+eboJoSASJABIgAESACRIAIEAEiQASIwBAkoOs6t43g5NpR4kgrRIjHE6hraEFjc1CGpSMRIAJEgAgQASJABIgAESACRIAIEAEiMMgJFBflYXhJIXRdS6lpWsOKBw4f5xoIuXn58Pi80DTa+ZBCj24QASJABIgAESACRIAIEAEiQASIABEYJAQSiTii4Qja21rh9bgwdlQpNJscwVEy0Nzajo7OMAoCAXhzckiAMEg+CKoGESACRIAIEAEiQASIABEgAkSACBCBdASY8oDH50NBcTFC4QiaWlN3JjgKEYIdIfh8PuiutLsd0uVJ94kAESACRIAIEAEiQASIABEgAkSACBCBAUxA113w+nLQ3hFOqYWjEKEzFIFGAoQUWHSDCBABIkAEiAARIAJEgAgQASJABIjAUCCg6S5EY/GUqv5/SdMTiUS7WtEAAAAASUVORK5CYII=;" vertex="1" parent="1">
          <mxGeometry x="80" y="420" width="1041" height="87" as="geometry" />
        </mxCell>
        <mxCell id="ojRkLQw6z2tPefdDa5fI-6" value="" style="rounded=0;whiteSpace=wrap;html=1;" vertex="1" parent="1">
          <mxGeometry x="80" y="350" width="1030" height="60" as="geometry" />
        </mxCell>
        <mxCell id="ojRkLQw6z2tPefdDa5fI-7" value="数据资产&amp;nbsp;" style="text;strokeColor=none;fillColor=none;html=1;fontSize=24;fontStyle=1;verticalAlign=middle;align=center;" vertex="1" parent="1">
          <mxGeometry x="90" y="360" width="100" height="40" as="geometry" />
        </mxCell>
        <mxCell id="ojRkLQw6z2tPefdDa5fI-8" value="" style="rounded=0;whiteSpace=wrap;html=1;" vertex="1" parent="1">
          <mxGeometry x="80" y="280" width="1030" height="60" as="geometry" />
        </mxCell>
        <mxCell id="ojRkLQw6z2tPefdDa5fI-9" value="数据服务&amp;nbsp;" style="text;strokeColor=none;fillColor=none;html=1;fontSize=24;fontStyle=1;verticalAlign=middle;align=center;" vertex="1" parent="1">
          <mxGeometry x="90" y="290" width="100" height="40" as="geometry" />
        </mxCell>
        <mxCell id="ojRkLQw6z2tPefdDa5fI-10" value="" style="rounded=0;whiteSpace=wrap;html=1;" vertex="1" parent="1">
          <mxGeometry x="80" y="210" width="1030" height="60" as="geometry" />
        </mxCell>
        <mxCell id="ojRkLQw6z2tPefdDa5fI-11" value="数据应用&amp;nbsp;" style="text;strokeColor=none;fillColor=none;html=1;fontSize=24;fontStyle=1;verticalAlign=middle;align=center;" vertex="1" parent="1">
          <mxGeometry x="90" y="220" width="100" height="40" as="geometry" />
        </mxCell>
        <mxCell id="ojRkLQw6z2tPefdDa5fI-12" value="" style="rounded=0;whiteSpace=wrap;html=1;" vertex="1" parent="1">
          <mxGeometry x="1121" y="200" width="110" height="400" as="geometry" />
        </mxCell>
        <mxCell id="ojRkLQw6z2tPefdDa5fI-13" value="数据开发" style="rounded=0;whiteSpace=wrap;html=1;" vertex="1" parent="1">
          <mxGeometry x="1240" y="200" width="20" height="400" as="geometry" />
        </mxCell>
        <mxCell id="ojRkLQw6z2tPefdDa5fI-14" value="" style="rounded=0;whiteSpace=wrap;html=1;" vertex="1" parent="1">
          <mxGeometry x="1270" y="200" width="110" height="400" as="geometry" />
        </mxCell>
        <mxCell id="ojRkLQw6z2tPefdDa5fI-15" value="数据管理" style="text;strokeColor=none;fillColor=none;html=1;fontSize=24;fontStyle=1;verticalAlign=middle;align=center;" vertex="1" parent="1">
          <mxGeometry x="1131" y="210" width="100" height="40" as="geometry" />
        </mxCell>
        <mxCell id="ojRkLQw6z2tPefdDa5fI-16" value="数据治理" style="text;strokeColor=none;fillColor=none;html=1;fontSize=24;fontStyle=1;verticalAlign=middle;align=center;" vertex="1" parent="1">
          <mxGeometry x="1270" y="210" width="100" height="40" as="geometry" />
        </mxCell>
      </root>
    </mxGraphModel>
  </diagram>
</mxfile>
